<?xml version="1.0" encoding="UTF-8"?>
<svg xmlns="http://www.w3.org/2000/svg" xmlns:xlink="http://www.w3.org/1999/xlink" width="27pt" height="27pt" viewBox="0 0 27 27">
<path fill-rule="nonzero" fill="rgb(93.331909%, 93.331909%, 93.331909%)" fill-opacity="1" d="M 0 10.5 L 27 10.5 L 27 16.5 L 0 16.5 Z M 0 10.5 "/>
<path fill-rule="nonzero" fill="rgb(0.392151%, 33.724976%, 63.920593%)" fill-opacity="1" d="M 24 3.75 L 3 3.75 C 1.34375 3.75 0 5.09375 0 6.75 L 0 10.5 L 27 10.5 L 27 6.75 C 27 5.09375 25.65625 3.75 24 3.75 Z M 0 20.25 C 0 21.90625 1.34375 23.25 3 23.25 L 24 23.25 C 25.65625 23.25 27 21.90625 27 20.25 L 27 16.5 L 0 16.5 Z M 0 20.25 "/>
<path fill-rule="nonzero" fill="rgb(14.901733%, 34.117126%, 65.489197%)" fill-opacity="1" d="M 13.699219 13.320312 L 13.511719 12.746094 L 13.324219 13.320312 L 12.722656 13.320312 L 13.210938 13.675781 L 13.023438 14.25 L 13.511719 13.894531 L 14 14.25 L 13.8125 13.675781 L 14.304688 13.320312 Z M 17.699219 15.179688 L 17.511719 15.753906 L 18 15.398438 L 18.488281 15.753906 L 18.300781 15.179688 L 18.792969 14.824219 L 18.1875 14.824219 L 18 14.25 L 17.8125 14.824219 L 17.207031 14.824219 Z M 18.1875 11.820312 L 18 11.246094 L 17.8125 11.820312 L 17.207031 11.820312 L 17.699219 12.175781 L 17.511719 12.75 L 18 12.394531 L 18.488281 12.75 L 18.300781 12.175781 L 18.792969 11.820312 Z M 8.65625 15.179688 L 8.46875 15.753906 L 8.957031 15.398438 L 9.449219 15.753906 L 9.261719 15.179688 L 9.75 14.824219 L 9.144531 14.824219 L 8.957031 14.25 L 8.773438 14.824219 L 8.167969 14.824219 Z M 9.144531 11.820312 L 8.957031 11.246094 L 8.773438 11.820312 L 8.167969 11.820312 L 8.65625 12.175781 L 8.46875 12.75 L 8.957031 12.394531 L 9.449219 12.75 L 9.261719 12.175781 L 9.75 11.820312 Z M 9.144531 11.820312 "/>
</svg>
