<?xml version="1.0" encoding="UTF-8"?>
<svg xmlns="http://www.w3.org/2000/svg" xmlns:xlink="http://www.w3.org/1999/xlink" width="27pt" height="27pt" viewBox="0 0 27 27">
<path fill-rule="nonzero" fill="rgb(81.567383%, 10.980225%, 22.744751%)" fill-opacity="1" d="M 27 20.25 C 27 21.90625 25.65625 23.25 24 23.25 L 3 23.25 C 1.34375 23.25 0 21.90625 0 20.25 L 0 6.75 C 0 5.09375 1.34375 3.75 3 3.75 L 24 3.75 C 25.65625 3.75 27 5.09375 27 6.75 Z M 27 20.25 "/>
<path fill-rule="nonzero" fill="rgb(0%, 12.548828%, 65.881348%)" fill-opacity="1" d="M 3 3.75 C 1.34375 3.75 0 5.09375 0 6.75 L 0 20.25 C 0 21.90625 1.34375 23.25 3 23.25 L 9 23.25 L 9 3.75 Z M 3 3.75 "/>
<path fill-rule="nonzero" fill="rgb(99.606323%, 87.449646%, 0%)" fill-opacity="1" d="M 9 3.75 L 18 3.75 L 18 23.25 L 9 23.25 Z M 9 3.75 "/>
<path fill-rule="nonzero" fill="rgb(78.038025%, 70.195007%, 49.803162%)" fill-opacity="1" d="M 17.277344 14.730469 C 17.15625 14.375 16.855469 14.445312 16.855469 14.5625 C 16.855469 14.5625 16.449219 14.269531 16.753906 13.734375 C 16.753906 13.734375 17.34375 13.804688 17.003906 13.347656 C 17.003906 13.347656 17.511719 13.0625 17.527344 12.472656 C 17.542969 11.882812 16.871094 11.511719 16.585938 11.746094 C 16.585938 11.746094 16.566406 11.511719 16.449219 11.511719 C 16.332031 11.511719 16.265625 11.664062 16.265625 11.664062 C 16.265625 11.664062 16.28125 11.277344 16.53125 11.054688 C 16.785156 10.835938 17.308594 10.246094 16.210938 9.910156 C 15.117188 9.574219 15.066406 10.265625 15.234375 10.417969 C 15.234375 10.417969 14.964844 10.566406 14.660156 10.550781 C 14.359375 10.535156 14.578125 10.179688 14.644531 10.027344 C 14.710938 9.878906 14.660156 9.339844 14.289062 9.355469 C 13.917969 9.371094 13.902344 9.523438 13.769531 9.574219 C 13.636719 9.625 13.5 9.589844 13.5 9.589844 C 13.5 9.589844 13.363281 9.625 13.230469 9.574219 C 13.097656 9.523438 13.078125 9.371094 12.707031 9.355469 C 12.335938 9.335938 12.285156 9.875 12.355469 10.027344 C 12.421875 10.179688 12.640625 10.535156 12.335938 10.550781 C 12.035156 10.566406 11.765625 10.414062 11.765625 10.414062 C 11.933594 10.265625 11.882812 9.570312 10.785156 9.910156 C 9.691406 10.246094 10.214844 10.835938 10.464844 11.054688 C 10.71875 11.273438 10.734375 11.660156 10.734375 11.660156 C 10.734375 11.660156 10.667969 11.511719 10.550781 11.511719 C 10.433594 11.511719 10.414062 11.746094 10.414062 11.746094 C 10.128906 11.511719 9.457031 11.878906 9.472656 12.472656 C 9.488281 13.058594 9.996094 13.347656 9.996094 13.347656 C 9.65625 13.800781 10.246094 13.734375 10.246094 13.734375 C 10.550781 14.269531 10.144531 14.558594 10.144531 14.558594 C 10.144531 14.441406 9.84375 14.375 9.722656 14.730469 C 9.605469 15.082031 9.960938 15.199219 9.960938 15.199219 C 9.488281 15.808594 9.792969 16.378906 10.246094 16.71875 C 10.703125 17.054688 11.578125 17.003906 12.015625 17.039062 C 12.453125 17.070312 12.539062 17.289062 12.539062 17.289062 C 12.203125 17.613281 12.707031 17.863281 12.707031 17.863281 C 12.808594 18.199219 13.210938 17.832031 13.210938 17.832031 L 13.5 18.085938 L 13.785156 17.832031 C 13.785156 17.832031 14.191406 18.203125 14.292969 17.863281 C 14.292969 17.863281 14.796875 17.613281 14.460938 17.292969 C 14.460938 17.292969 14.546875 17.070312 14.984375 17.039062 C 15.421875 17.003906 16.296875 17.054688 16.753906 16.71875 C 17.207031 16.382812 17.511719 15.808594 17.039062 15.203125 C 17.039062 15.203125 17.394531 15.085938 17.277344 14.730469 Z M 17.277344 14.730469 "/>
<path fill-rule="nonzero" fill="rgb(81.567383%, 10.980225%, 22.744751%)" fill-opacity="1" d="M 11.140625 11.007812 L 13.363281 11.007812 L 13.363281 13.230469 L 11.140625 13.230469 Z M 11.140625 11.007812 "/>
<path fill-rule="nonzero" fill="rgb(99.606323%, 87.449646%, 0%)" fill-opacity="1" d="M 11.949219 12.378906 L 11.289062 13.0625 L 11.390625 13.179688 L 11.949219 12.566406 Z M 13.035156 11.511719 C 13.035156 11.511719 13.328125 11.589844 13.328125 11.328125 C 13.328125 11.066406 13.152344 11.066406 13.097656 11.066406 C 13.035156 11.066406 12.765625 11.109375 12.757812 11.214844 C 12.75 11.324219 12.863281 11.394531 12.800781 11.453125 C 12.742188 11.511719 12.574219 11.65625 12.574219 11.65625 L 12.675781 11.773438 C 12.675781 11.773438 12.816406 11.65625 12.925781 11.496094 C 12.984375 11.410156 12.941406 11.210938 12.996094 11.199219 C 13.152344 11.164062 13.214844 11.242188 13.207031 11.300781 C 13.195312 11.359375 13.097656 11.417969 13.097656 11.417969 Z M 13.035156 11.511719 "/>
<path fill-rule="nonzero" fill="rgb(100%, 100%, 100%)" fill-opacity="1" d="M 12.488281 12.683594 C 12.488281 12.683594 12.53125 12.996094 12.683594 13.011719 C 12.835938 13.027344 12.886719 12.527344 13.132812 12.527344 C 13.382812 12.527344 13.40625 12.960938 13.132812 13.027344 L 13.097656 12.902344 C 13.097656 12.902344 13.273438 12.726562 13.144531 12.699219 C 13.019531 12.675781 12.960938 12.835938 12.945312 12.902344 C 12.925781 12.96875 12.824219 13.144531 12.675781 13.144531 C 12.421875 13.144531 12.386719 12.914062 12.347656 12.734375 C 12.3125 12.554688 12.488281 12.683594 12.488281 12.683594 Z M 12.039062 12.683594 C 12.039062 12.683594 11.996094 12.996094 11.84375 13.011719 C 11.691406 13.027344 11.640625 12.527344 11.394531 12.527344 C 11.144531 12.527344 11.121094 12.960938 11.394531 13.027344 L 11.429688 12.902344 C 11.429688 12.902344 11.253906 12.726562 11.382812 12.699219 C 11.507812 12.675781 11.566406 12.835938 11.582031 12.902344 C 11.601562 12.96875 11.699219 13.144531 11.851562 13.144531 C 12.105469 13.144531 12.140625 12.914062 12.175781 12.734375 C 12.214844 12.554688 12.039062 12.683594 12.039062 12.683594 Z M 12.039062 12.683594 "/>
<path fill-rule="nonzero" fill="rgb(100%, 100%, 100%)" fill-opacity="1" d="M 12.296875 11.097656 L 12.945312 11.925781 L 12.621094 12.808594 C 12.621094 12.808594 12.488281 12.734375 12.292969 12.734375 C 12.101562 12.734375 11.949219 12.808594 11.949219 12.808594 L 11.605469 11.914062 Z M 12.296875 11.097656 "/>
<path fill-rule="nonzero" fill="rgb(99.606323%, 87.449646%, 0%)" fill-opacity="1" d="M 12.347656 11.386719 L 12.800781 11.929688 L 12.574219 12.625 L 12.355469 12.554688 Z M 12.199219 11.386719 L 11.746094 11.929688 L 11.976562 12.625 L 12.195312 12.554688 Z M 11.140625 13.433594 L 11.140625 14.816406 C 11.140625 15.726562 11.804688 15.851562 12.375 15.726562 C 12.835938 15.625 13.363281 15.726562 13.363281 15.726562 L 13.363281 13.433594 Z M 11.140625 13.433594 "/>
<path fill-rule="nonzero" fill="rgb(81.567383%, 10.980225%, 22.744751%)" fill-opacity="1" d="M 12.375 15.726562 L 12.421875 15.714844 L 12.421875 13.433594 L 12.085938 13.433594 L 12.085938 15.761719 C 12.183594 15.757812 12.28125 15.746094 12.375 15.726562 Z M 13.097656 15.691406 L 13.097656 13.433594 L 12.757812 13.433594 L 12.757812 15.679688 C 12.882812 15.675781 13 15.683594 13.097656 15.691406 Z M 11.746094 15.734375 L 11.746094 13.433594 L 11.410156 13.433594 L 11.410156 15.5625 C 11.503906 15.648438 11.621094 15.703125 11.746094 15.734375 Z M 11.746094 15.734375 "/>
<path fill-rule="nonzero" fill="rgb(99.606323%, 87.449646%, 0%)" fill-opacity="1" d="M 13.636719 11.007812 L 15.859375 11.007812 L 15.859375 13.230469 L 13.636719 13.230469 Z M 13.636719 11.007812 "/>
<path fill-rule="nonzero" fill="rgb(81.567383%, 10.980225%, 22.744751%)" fill-opacity="1" d="M 13.902344 11.007812 L 14.242188 11.007812 L 14.242188 13.230469 L 13.902344 13.230469 Z M 14.578125 11.007812 L 14.914062 11.007812 L 14.914062 13.230469 L 14.578125 13.230469 Z M 15.253906 11.007812 L 15.589844 11.007812 L 15.589844 13.230469 L 15.253906 13.230469 Z M 15.253906 11.007812 "/>
<path fill-rule="nonzero" fill="rgb(99.606323%, 87.449646%, 0%)" fill-opacity="1" d="M 15.859375 13.433594 L 15.859375 14.816406 C 15.859375 15.726562 15.195312 15.851562 14.625 15.726562 C 14.164062 15.625 13.636719 15.726562 13.636719 15.726562 L 13.636719 13.433594 Z M 15.859375 13.433594 "/>
<path fill-rule="nonzero" fill="rgb(81.567383%, 10.980225%, 22.744751%)" fill-opacity="1" d="M 13.972656 13.804688 L 14.183594 13.632812 L 14.445312 13.632812 L 14.445312 13.769531 C 14.445312 13.769531 14.816406 13.765625 15.117188 13.734375 C 15.421875 13.703125 15.515625 13.929688 15.421875 13.988281 C 15.328125 14.046875 15.4375 14.277344 15.421875 14.382812 C 15.402344 14.492188 15.203125 14.652344 15.253906 14.5625 C 15.300781 14.46875 15.253906 14.214844 15.253906 14.214844 C 15.253906 14.214844 15.195312 14.410156 15.140625 14.46875 C 15.089844 14.527344 14.914062 14.535156 14.980469 14.484375 C 15.050781 14.433594 15.117188 14.324219 15.058594 14.265625 C 15 14.207031 14.734375 14.199219 14.722656 14.222656 C 14.710938 14.25 14.664062 14.542969 14.628906 14.5625 C 14.59375 14.578125 14.550781 14.535156 14.578125 14.445312 C 14.601562 14.351562 14.578125 14.191406 14.578125 14.191406 C 14.578125 14.191406 14.402344 14.183594 14.410156 14.257812 C 14.417969 14.335938 14.492188 14.367188 14.476562 14.425781 C 14.460938 14.484375 14.351562 14.5625 14.34375 14.460938 C 14.332031 14.359375 14.164062 14.292969 14.242188 14.242188 C 14.316406 14.191406 14.394531 14.113281 14.394531 14.113281 C 14.394531 14.113281 14.296875 14.089844 14.230469 13.996094 C 14.164062 13.90625 14.105469 13.914062 13.972656 13.914062 C 13.902344 13.914062 13.972656 13.804688 13.972656 13.804688 Z M 13.972656 14.816406 L 14.183594 14.644531 L 14.445312 14.644531 L 14.445312 14.78125 C 14.445312 14.78125 14.816406 14.777344 15.117188 14.746094 C 15.421875 14.714844 15.515625 14.941406 15.421875 15 C 15.328125 15.058594 15.4375 15.285156 15.421875 15.394531 C 15.402344 15.503906 15.203125 15.664062 15.253906 15.574219 C 15.300781 15.480469 15.253906 15.226562 15.253906 15.226562 C 15.253906 15.226562 15.195312 15.421875 15.140625 15.480469 C 15.089844 15.539062 14.914062 15.546875 14.980469 15.496094 C 15.050781 15.445312 15.117188 15.335938 15.058594 15.277344 C 15 15.21875 14.734375 15.210938 14.722656 15.234375 C 14.710938 15.261719 14.664062 15.554688 14.628906 15.570312 C 14.59375 15.589844 14.550781 15.546875 14.578125 15.453125 C 14.601562 15.363281 14.578125 15.199219 14.578125 15.199219 C 14.578125 15.199219 14.402344 15.191406 14.410156 15.269531 C 14.417969 15.34375 14.492188 15.378906 14.476562 15.4375 C 14.460938 15.496094 14.351562 15.574219 14.34375 15.472656 C 14.332031 15.371094 14.164062 15.300781 14.242188 15.253906 C 14.316406 15.203125 14.394531 15.121094 14.394531 15.121094 C 14.394531 15.121094 14.296875 15.101562 14.230469 15.007812 C 14.164062 14.914062 14.105469 14.925781 13.972656 14.925781 C 13.902344 14.925781 13.972656 14.816406 13.972656 14.816406 Z M 13.972656 14.816406 "/>
<path fill-rule="nonzero" fill="rgb(68.626404%, 56.861877%, 40.391541%)" fill-opacity="1" d="M 10.972656 15.894531 C 10.972656 15.917969 12.210938 16.253906 12.347656 16.28125 C 12.488281 16.304688 12.4375 16.59375 12.253906 16.574219 C 12.066406 16.558594 11.148438 16.359375 11.03125 16.296875 C 10.914062 16.238281 10.972656 15.894531 10.972656 15.894531 Z M 12.675781 16.308594 C 12.675781 16.308594 13.046875 16.359375 13.363281 16.375 C 13.683594 16.386719 13.902344 16.359375 13.902344 16.359375 L 14.132812 16.667969 C 14.132812 16.667969 13.734375 16.710938 13.464844 16.710938 C 13.195312 16.710938 12.757812 16.667969 12.757812 16.667969 Z M 14.292969 16.308594 C 14.292969 16.308594 14.824219 16.214844 15.144531 16.136719 C 15.464844 16.0625 15.886719 15.910156 15.996094 15.894531 C 16.105469 15.875 16.179688 16.074219 16.214844 16.101562 L 16.246094 16.128906 C 16.246094 16.128906 15.691406 16.390625 15.421875 16.464844 C 15.152344 16.542969 14.292969 16.660156 14.292969 16.660156 C 14.292969 16.660156 14.167969 16.332031 14.292969 16.308594 Z M 14.292969 16.308594 "/>
</svg>
