<?xml version="1.0" encoding="UTF-8"?>
<svg xmlns="http://www.w3.org/2000/svg" xmlns:xlink="http://www.w3.org/1999/xlink" width="27pt" height="27pt" viewBox="0 0 27 27">
<path fill-rule="nonzero" fill="rgb(40.783691%, 74.900818%, 89.802551%)" fill-opacity="1" d="M 24 3.75 L 3 3.75 C 2.847656 3.75 2.695312 3.761719 2.546875 3.785156 L 2.542969 5.097656 L 0.496094 5.097656 C 0.183594 5.570312 0 6.140625 0 6.75 L 0 20.25 C 0 21.90625 1.34375 23.25 3 23.25 L 24 23.25 C 25.65625 23.25 27 21.90625 27 20.25 L 27 6.75 C 27 5.09375 25.65625 3.75 24 3.75 Z M 24 3.75 "/>
<path fill-rule="nonzero" fill="rgb(0%, 0%, 0%)" fill-opacity="1" d="M 20.734375 8.71875 L 17.078125 8.71875 L 17.078125 14.90625 C 17.078125 17 20.734375 18.171875 20.734375 18.171875 C 20.734375 18.171875 24.390625 17 24.390625 14.90625 L 24.390625 8.71875 Z M 20.734375 8.71875 "/>
<path fill-rule="nonzero" fill="rgb(100%, 100%, 100%)" fill-opacity="1" d="M 20.734375 18.015625 C 20.316406 17.871094 17.226562 16.742188 17.226562 14.90625 L 17.226562 8.867188 L 24.242188 8.867188 L 24.242188 14.90625 C 24.242188 16.742188 21.152344 17.871094 20.734375 18.015625 Z M 20.734375 18.015625 "/>
<path fill-rule="nonzero" fill="rgb(82.351685%, 6.274414%, 20.391846%)" fill-opacity="1" d="M 24.242188 11.171875 L 24.242188 8.867188 L 17.226562 8.867188 L 17.226562 11.171875 L 20.234375 11.171875 L 20.234375 13.71875 L 17.226562 13.71875 L 17.226562 14.703125 L 20.234375 14.703125 L 20.234375 17.820312 C 20.472656 17.921875 20.652344 17.984375 20.734375 18.011719 C 20.8125 17.988281 20.988281 17.921875 21.21875 17.828125 L 21.21875 14.703125 L 24.242188 14.703125 L 24.242188 13.71875 L 21.21875 13.71875 L 21.21875 11.171875 Z M 24.242188 11.171875 "/>
<path fill-rule="nonzero" fill="rgb(100%, 100%, 100%)" fill-opacity="1" d="M 18.136719 10.269531 C 18.136719 10.476562 17.945312 10.640625 17.710938 10.640625 C 17.472656 10.640625 17.28125 10.476562 17.28125 10.269531 C 17.28125 10.0625 17.472656 9.894531 17.710938 9.894531 C 17.945312 9.894531 18.136719 10.0625 18.136719 10.269531 Z M 18.136719 10.269531 "/>
<path fill-rule="nonzero" fill="rgb(100%, 81.959534%, 0.392151%)" fill-opacity="1" d="M 17.789062 9.972656 C 17.542969 10.015625 17.425781 9.867188 17.472656 9.726562 C 17.519531 9.585938 17.753906 9.457031 17.976562 9.433594 C 18.199219 9.410156 18.410156 9.632812 18.585938 9.644531 C 18.761719 9.65625 18.855469 9.558594 18.890625 9.429688 C 18.925781 9.304688 19.171875 9.011719 19.019531 8.941406 C 19.21875 8.941406 19.21875 9.152344 19.21875 9.152344 C 19.21875 9.152344 19.441406 8.929688 19.605469 8.941406 C 19.699219 9.105469 19.605469 9.339844 19.605469 9.339844 C 19.605469 9.339844 19.839844 9.246094 20.003906 9.351562 C 19.6875 9.398438 19.640625 9.585938 19.640625 9.585938 C 19.640625 9.585938 19.699219 9.738281 19.617188 9.820312 C 19.535156 9.902344 20.261719 10.054688 20.660156 9.9375 C 21.058594 9.820312 21.820312 9.550781 22.3125 9.550781 C 22.804688 9.550781 22.910156 9.738281 23.027344 9.570312 C 23.144531 9.40625 22.886719 9.234375 22.464844 9.269531 C 22.042969 9.304688 21.328125 9.792969 21.046875 9.464844 C 20.976562 9.464844 20.941406 9.550781 20.941406 9.550781 C 20.941406 9.550781 20.765625 9.492188 20.589844 9.398438 C 20.414062 9.304688 20.449219 9.621094 20.542969 9.664062 C 20.25 9.652344 20.257812 9.464844 20.257812 9.464844 C 20.257812 9.464844 19.898438 9.199219 20.132812 9 C 20.148438 9.363281 20.472656 9.257812 20.648438 9.1875 C 20.824219 9.117188 21.046875 9.175781 21.152344 9.269531 C 21.257812 9.363281 21.5625 9.445312 21.949219 9.222656 C 22.335938 9 23.378906 8.917969 23.390625 9.386719 C 23.402344 9.855469 22.875 9.890625 22.875 9.890625 C 22.875 9.890625 22.933594 10.171875 23.261719 10.113281 C 23.589844 10.054688 23.800781 9.960938 23.894531 10.21875 C 23.988281 10.476562 24.199219 10.488281 24.128906 10.699219 C 24.058594 10.910156 23.824219 11.007812 23.507812 10.953125 C 23.191406 10.898438 23.15625 10.769531 23.414062 10.722656 C 23.671875 10.675781 23.71875 10.476562 23.625 10.429688 C 23.53125 10.382812 23.355469 10.570312 23.121094 10.476562 C 22.886719 10.382812 22.582031 10.195312 22.582031 10.195312 C 22.582031 10.195312 22.59375 10.324219 22.382812 10.394531 C 22.171875 10.464844 22.347656 10.546875 22.40625 10.675781 C 22.464844 10.804688 22.195312 10.910156 21.914062 10.96875 C 21.632812 11.027344 21.421875 11.179688 21.152344 10.851562 C 20.882812 10.523438 21.222656 10.429688 21.363281 10.535156 C 21.503906 10.640625 21.644531 10.828125 21.761719 10.734375 C 21.878906 10.640625 21.679688 10.582031 21.65625 10.40625 C 21.632812 10.230469 21.667969 10.019531 21.667969 10.019531 C 21.667969 10.019531 21.292969 10.605469 20.496094 10.722656 C 19.699219 10.839844 19.558594 10.839844 19.558594 10.839844 L 19.324219 10.675781 L 19.042969 10.863281 L 19.03125 10.652344 C 19.03125 10.652344 18.585938 11 18.351562 11.054688 C 18.117188 11.109375 17.476562 10.957031 17.464844 10.78125 C 17.449219 10.605469 17.519531 10.523438 17.730469 10.453125 C 17.941406 10.382812 17.976562 10.5 18.082031 10.59375 C 18.1875 10.6875 18.304688 10.816406 18.457031 10.6875 C 18.609375 10.558594 18.691406 10.511719 18.691406 10.511719 L 18.738281 10.289062 L 18.515625 10.277344 L 18.597656 10.019531 C 18.597656 10.019531 18.433594 10.054688 18.316406 9.949219 C 18.199219 9.84375 18.1875 9.738281 18.082031 9.773438 C 17.976562 9.808594 18.058594 9.925781 17.789062 9.972656 Z M 17.789062 9.972656 "/>
<path fill-rule="nonzero" fill="rgb(58.822632%, 29.411316%, 21.176147%)" fill-opacity="1" d="M 18.351562 13.371094 C 18.152344 13.453125 17.847656 12.796875 18.023438 12.609375 C 18.199219 12.421875 18.550781 13.289062 18.351562 13.371094 Z M 18.738281 13.289062 C 18.550781 13.304688 18.621094 12.398438 18.738281 12.398438 C 18.855469 12.398438 18.996094 13.265625 18.738281 13.289062 Z M 19.066406 13.433594 C 18.832031 13.390625 19.183594 12.84375 19.277344 12.84375 C 19.371094 12.84375 19.335938 13.480469 19.066406 13.433594 Z M 22.769531 13.582031 C 22.3125 13.59375 22.570312 13.5 22.617188 13.378906 C 22.664062 13.253906 22.636719 12.328125 22.636719 12.328125 L 22.898438 12.328125 C 22.898438 12.328125 22.816406 13.125 22.898438 13.289062 C 22.980469 13.453125 23.191406 13.570312 22.769531 13.582031 Z M 23.671875 15.199219 C 23.78125 15.078125 23.507812 14.882812 23.320312 14.882812 C 23.132812 14.882812 22.921875 14.988281 22.761719 15.433594 C 22.605469 15.878906 22.9375 15.75 23.023438 15.503906 C 23.109375 15.257812 23.179688 15.117188 23.308594 15.105469 C 23.4375 15.09375 23.484375 15.410156 23.671875 15.199219 Z M 21.878906 16.757812 C 21.636719 16.738281 21.433594 17.367188 21.433594 17.367188 C 21.433594 17.367188 22.511719 16.804688 21.878906 16.757812 Z M 21.878906 16.757812 "/>
<path fill-rule="nonzero" fill="rgb(0%, 65.097046%, 31.764221%)" fill-opacity="1" d="M 18.136719 12.84375 C 18.195312 13.03125 17.601562 12.8125 17.589844 13.140625 C 17.34375 13.101562 17.695312 12.621094 17.917969 12.691406 C 17.871094 12.433594 17.539062 12.328125 17.507812 12.75 C 17.132812 12.421875 17.609375 12.105469 17.820312 12.246094 C 17.707031 11.847656 17.488281 11.855469 17.464844 12.09375 C 17.179688 11.859375 17.464844 11.484375 17.710938 11.660156 C 17.953125 11.835938 17.972656 12.023438 17.972656 12.023438 C 17.972656 12.023438 18.140625 11.417969 18.574219 11.613281 C 18.050781 11.835938 17.949219 12.234375 18.136719 12.84375 Z M 18.136719 12.84375 "/>
<path fill-rule="nonzero" fill="rgb(0%, 65.097046%, 31.764221%)" fill-opacity="1" d="M 18.753906 12.582031 C 18.597656 12.433594 18.503906 12.269531 18.503906 12.269531 C 18.503906 12.269531 18.667969 12.714844 18.410156 12.902344 C 18.421875 12.492188 18.140625 12.351562 18.292969 12.1875 C 18.445312 12.023438 18.703125 12.1875 18.703125 12.1875 C 18.703125 12.1875 18.765625 12.09375 18.5 11.859375 C 18.234375 11.625 18.046875 11.636719 18.035156 11.4375 C 18.300781 11.59375 18.703125 11.597656 18.753906 12.035156 C 18.808594 11.507812 19.046875 11.496094 19.15625 11.484375 C 19.265625 11.472656 19.523438 11.53125 19.617188 11.4375 C 19.617188 11.625 19.40625 11.566406 19.265625 11.625 C 19.453125 11.753906 19.464844 12.171875 19.464844 12.171875 C 19.464844 12.171875 19.195312 11.695312 19.078125 11.730469 C 18.960938 11.765625 18.882812 12.117188 18.882812 12.117188 C 18.882812 12.117188 19.3125 12.105469 19.15625 12.679688 C 19.089844 12.363281 19.019531 12.328125 18.9375 12.328125 C 18.855469 12.328125 18.753906 12.582031 18.753906 12.582031 Z M 18.753906 12.582031 "/>
<path fill-rule="nonzero" fill="rgb(0%, 65.097046%, 31.764221%)" fill-opacity="1" d="M 19.15625 12.980469 C 19.171875 12.761719 19.277344 12.386719 19.394531 12.355469 C 19.433594 12.117188 19.558594 11.777344 19.816406 11.71875 C 20.074219 11.660156 20.132812 11.929688 20.074219 12.082031 C 19.921875 11.859375 19.710938 11.800781 19.664062 12.328125 C 19.886719 12.269531 20.015625 12.445312 19.957031 12.679688 C 19.746094 12.433594 19.59375 12.402344 19.5 12.582031 C 19.746094 12.679688 19.75 12.890625 19.625 13.066406 C 19.570312 12.761719 19.40625 12.785156 19.320312 13.066406 C 19.234375 13.347656 19.15625 12.980469 19.15625 12.980469 Z M 22.722656 12.582031 C 22.453125 12.582031 22.101562 12.859375 22.078125 13.289062 C 21.796875 12.867188 22.140625 12.398438 22.503906 12.234375 C 21.867188 12.246094 21.632812 12.527344 21.550781 12.761719 C 21.46875 12.140625 22.257812 11.894531 22.503906 12 C 22.347656 11.730469 21.738281 11.753906 21.433594 11.976562 C 21.433594 11.460938 22.34375 11.335938 22.722656 11.800781 C 22.675781 11.425781 22.828125 11.332031 22.828125 11.332031 L 22.828125 11.835938 C 22.828125 11.835938 23.675781 11.039062 24.144531 12 C 23.390625 11.613281 23.023438 12.011719 23.023438 12.011719 C 23.023438 12.011719 23.804688 11.824219 23.695312 12.726562 C 23.449219 12.175781 22.933594 12.234375 22.933594 12.234375 C 22.933594 12.234375 23.53125 12.503906 23.296875 13.171875 C 23.0625 12.527344 22.722656 12.582031 22.722656 12.582031 Z M 22.722656 12.582031 "/>
<path fill-rule="nonzero" fill="rgb(100%, 94.900513%, 0.784302%)" fill-opacity="1" d="M 22.148438 15.515625 C 22.113281 15.164062 22.558594 14.964844 22.558594 14.964844 C 22.558594 14.964844 23.308594 15.421875 23.414062 15.515625 C 23.519531 15.609375 23.351562 16.003906 23.023438 16.105469 C 22.699219 16.207031 22.148438 15.515625 22.148438 15.515625 Z M 22.148438 15.515625 "/>
<path fill-rule="nonzero" fill="rgb(0%, 65.097046%, 31.764221%)" fill-opacity="1" d="M 21.941406 16.765625 C 21.765625 16.65625 21.652344 16.03125 21.941406 15.972656 C 21.832031 15.597656 22.066406 15.410156 22.148438 15.386719 C 22.230469 15.363281 22.535156 15.5 22.761719 15.71875 C 22.992188 15.9375 23.191406 15.988281 23.207031 16.074219 C 23.226562 16.160156 23.066406 16.417969 22.789062 16.441406 C 22.875 16.699219 22.214844 16.941406 21.941406 16.765625 Z M 21.941406 16.765625 "/>
<path fill-rule="nonzero" fill="rgb(0%, 0%, 0%)" fill-opacity="1" d="M 18.035156 15.304688 C 18.035156 15.304688 18.210938 15.234375 18.316406 15.128906 C 18.421875 15.023438 18.5625 15.023438 18.679688 15.214844 C 18.796875 15.410156 18.882812 15.65625 18.882812 15.65625 C 18.882812 15.65625 18.84375 15.304688 19.207031 15.117188 C 19.570312 14.929688 19.625 14.882812 19.625 14.882812 L 19.5 15.382812 C 19.5 15.382812 19.933594 15.117188 20.003906 14.964844 C 20.097656 15.5625 19.652344 15.988281 19.371094 16.105469 C 19.523438 16.359375 19.453125 16.570312 19.453125 16.570312 L 19.96875 16.992188 L 19.40625 17.167969 L 19.15625 16.628906 C 19.15625 16.628906 18.503906 16.652344 18.410156 16.160156 C 18.316406 15.667969 18.539062 15.402344 18.410156 15.382812 C 18.28125 15.363281 18.035156 15.304688 18.035156 15.304688 Z M 18.035156 15.304688 "/>
<path fill-rule="nonzero" fill="rgb(100%, 100%, 100%)" fill-opacity="1" d="M 19.203125 16.550781 L 19.152344 16.554688 C 19.042969 16.554688 18.558594 16.53125 18.484375 16.144531 C 18.4375 15.890625 18.476562 15.699219 18.507812 15.570312 C 18.527344 15.476562 18.542969 15.410156 18.503906 15.359375 L 18.488281 15.332031 L 18.421875 15.308594 C 18.375 15.300781 18.3125 15.289062 18.25 15.277344 C 18.292969 15.25 18.335938 15.21875 18.371094 15.179688 C 18.390625 15.160156 18.425781 15.132812 18.464844 15.132812 C 18.515625 15.132812 18.570312 15.175781 18.617188 15.253906 C 18.726562 15.441406 18.8125 15.679688 18.8125 15.679688 L 18.957031 15.648438 C 18.957031 15.632812 18.929688 15.34375 19.242188 15.183594 C 19.359375 15.121094 19.445312 15.074219 19.507812 15.042969 L 19.382812 15.542969 L 19.539062 15.445312 C 19.59375 15.414062 19.796875 15.285156 19.941406 15.152344 C 19.925781 15.632812 19.542969 15.953125 19.34375 16.035156 L 19.261719 16.066406 L 19.308594 16.144531 C 19.4375 16.363281 19.382812 16.539062 19.382812 16.546875 L 19.367188 16.59375 L 19.8125 16.960938 L 19.449219 17.074219 Z M 19.203125 16.550781 "/>
<path fill-rule="nonzero" fill="rgb(0%, 65.097046%, 31.764221%)" fill-opacity="1" d="M 18.191406 15.222656 C 18.105469 15.023438 18.105469 15.023438 17.972656 14.964844 C 17.964844 15.09375 17.972656 15.175781 17.972656 15.175781 C 17.972656 15.175781 17.894531 14.929688 17.777344 14.964844 C 17.707031 15.246094 17.957031 15.304688 17.957031 15.304688 C 17.957031 15.304688 17.847656 15.339844 17.859375 15.539062 C 18.058594 15.621094 18.035156 15.445312 18.035156 15.445312 C 18.035156 15.445312 17.992188 15.625 18.136719 15.726562 C 18.234375 15.574219 18.191406 15.222656 18.191406 15.222656 Z M 18.191406 15.222656 "/>
<path fill-rule="nonzero" fill="rgb(0%, 14.117432%, 49.01886%)" fill-opacity="1" d="M 14.25 13.5 L 14.25 3.75 L 3 3.75 C 2.761719 3.75 2.546875 3.785156 2.546875 3.785156 L 2.542969 5.097656 L 0.496094 5.097656 C 0.496094 5.097656 0.464844 5.140625 0.402344 5.25 C 0.144531 5.691406 0 6.203125 0 6.75 L 0 13.5 Z M 14.25 13.5 "/>
<path fill-rule="nonzero" fill="rgb(93.331909%, 93.331909%, 93.331909%)" fill-opacity="1" d="M 14.25 3.75 L 12.5 3.75 L 9 6.203125 L 9 3.75 L 5.25 3.75 L 5.25 5.675781 L 2.546875 3.785156 C 2.085938 3.855469 1.65625 4.027344 1.292969 4.28125 L 4.820312 6.75 L 3.515625 6.75 L 0.726562 4.792969 C 0.644531 4.890625 0.566406 4.988281 0.496094 5.097656 L 2.859375 6.75 L 0 6.75 L 0 10.5 L 2.914062 10.5 L 0 12.574219 L 0 13.5 L 2.5 13.5 L 5.25 11.574219 L 5.25 13.5 L 9 13.5 L 9 11.046875 L 12.5 13.5 L 14.25 13.5 L 14.25 11.976562 L 12.140625 10.5 L 14.25 10.5 L 14.25 6.75 L 12.140625 6.75 L 14.25 5.273438 Z M 14.25 3.75 "/>
<path fill-rule="nonzero" fill="rgb(81.175232%, 10.588074%, 16.862488%)" fill-opacity="1" d="M 8.25 3.75 L 6 3.75 L 6 7.5 L 0 7.5 L 0 9.75 L 6 9.75 L 6 13.5 L 8.25 13.5 L 8.25 9.75 L 14.25 9.75 L 14.25 7.5 L 8.25 7.5 Z M 8.25 3.75 "/>
<path fill-rule="nonzero" fill="rgb(81.175232%, 10.588074%, 16.862488%)" fill-opacity="1" d="M 14.25 3.75 L 13.152344 3.75 L 9 6.660156 L 9 6.75 L 10.179688 6.75 L 14.25 3.898438 Z M 1.292969 4.28125 C 1.082031 4.429688 0.890625 4.601562 0.726562 4.792969 L 3.515625 6.75 L 4.820312 6.75 Z M 4.828125 10.5 L 0.550781 13.5 L 1.847656 13.5 L 5.25 11.117188 L 5.25 10.5 Z M 14.25 13.351562 L 14.25 12.4375 L 11.484375 10.5 L 10.175781 10.5 Z M 14.25 13.351562 "/>
</svg>
