<?xml version="1.0" encoding="UTF-8"?>
<svg xmlns="http://www.w3.org/2000/svg" xmlns:xlink="http://www.w3.org/1999/xlink" width="27pt" height="27pt" viewBox="0 0 27 27">
<path fill-rule="nonzero" fill="rgb(90.979004%, 6.666565%, 17.64679%)" fill-opacity="1" d="M 27 20.25 C 27 21.90625 25.65625 23.25 24 23.25 L 3 23.25 C 1.34375 23.25 0 21.90625 0 20.25 L 0 6.75 C 0 5.09375 1.34375 3.75 3 3.75 L 24 3.75 C 25.65625 3.75 27 5.09375 27 6.75 Z M 27 20.25 "/>
<path fill-rule="nonzero" fill="rgb(100%, 79.998779%, 30.195618%)" fill-opacity="1" d="M 13.855469 8.988281 C 13.867188 8.207031 14.558594 7.667969 14.589844 6.621094 C 15.085938 7.246094 14.265625 8.421875 14.554688 9.101562 C 14.691406 8.328125 15.457031 7.902344 15.652344 6.878906 C 16.046875 7.574219 15.050781 8.601562 15.230469 9.320312 C 15.484375 8.578125 16.308594 8.28125 16.660156 7.296875 C 16.941406 8.046875 15.796875 8.90625 15.863281 9.640625 C 16.226562 8.949219 17.089844 8.785156 17.59375 7.867188 C 17.753906 8.652344 16.488281 9.320312 16.4375 10.058594 C 16.90625 9.433594 17.785156 9.402344 18.421875 8.578125 C 18.460938 9.375 17.105469 9.839844 16.941406 10.5625 C 17.503906 10.015625 18.375 10.125 19.132812 9.40625 C 19.042969 10.203125 17.632812 10.449219 17.355469 11.136719 C 17.996094 10.683594 18.84375 10.929688 19.703125 10.339844 C 19.492188 11.109375 18.058594 11.132812 17.679688 11.769531 C 18.382812 11.421875 19.179688 11.796875 20.125 11.347656 C 19.792969 12.074219 18.371094 11.875 17.898438 12.445312 C 18.648438 12.210938 19.375 12.707031 20.378906 12.410156 C 19.9375 13.078125 18.566406 12.65625 18.011719 13.144531 C 18.785156 13.03125 19.429688 13.632812 20.464844 13.5 C 19.921875 14.089844 18.636719 13.460938 18.011719 13.855469 C 18.796875 13.867188 19.335938 14.558594 20.375 14.589844 C 19.75 15.085938 18.578125 14.261719 17.898438 14.554688 C 18.671875 14.691406 19.097656 15.457031 20.125 15.652344 C 19.425781 16.046875 18.398438 15.050781 17.679688 15.230469 C 18.421875 15.484375 18.722656 16.308594 19.703125 16.660156 C 18.957031 16.941406 18.097656 15.796875 17.355469 15.863281 C 18.050781 16.226562 18.21875 17.089844 19.132812 17.59375 C 18.347656 17.753906 17.679688 16.488281 16.941406 16.4375 C 17.566406 16.90625 17.597656 17.785156 18.421875 18.421875 C 17.625 18.460938 17.160156 17.105469 16.4375 16.941406 C 16.984375 17.503906 16.875 18.375 17.59375 19.132812 C 16.796875 19.042969 16.550781 17.632812 15.863281 17.355469 C 16.316406 17.996094 16.070312 18.84375 16.660156 19.703125 C 15.890625 19.492188 15.867188 18.058594 15.230469 17.679688 C 15.578125 18.382812 15.203125 19.179688 15.652344 20.125 C 14.921875 19.792969 15.125 18.371094 14.554688 17.898438 C 14.789062 18.648438 14.296875 19.375 14.589844 20.378906 C 13.921875 19.9375 14.34375 18.566406 13.855469 18.011719 C 13.96875 18.785156 13.367188 19.429688 13.5 20.464844 C 12.910156 19.921875 13.539062 18.636719 13.144531 18.011719 C 13.132812 18.796875 12.441406 19.335938 12.410156 20.375 C 11.914062 19.753906 12.734375 18.578125 12.441406 17.898438 C 12.308594 18.671875 11.539062 19.097656 11.347656 20.125 C 10.953125 19.425781 11.949219 18.398438 11.769531 17.679688 C 11.515625 18.421875 10.691406 18.722656 10.339844 19.703125 C 10.058594 18.957031 11.203125 18.097656 11.136719 17.355469 C 10.769531 18.050781 9.90625 18.21875 9.40625 19.132812 C 9.246094 18.347656 10.511719 17.679688 10.5625 16.941406 C 10.09375 17.566406 9.214844 17.597656 8.578125 18.421875 C 8.539062 17.625 9.898438 17.160156 10.058594 16.4375 C 9.5 16.984375 8.625 16.875 7.867188 17.59375 C 7.957031 16.796875 9.367188 16.550781 9.644531 15.863281 C 9.003906 16.316406 8.160156 16.070312 7.296875 16.660156 C 7.507812 15.890625 8.941406 15.867188 9.320312 15.230469 C 8.617188 15.578125 7.824219 15.203125 6.878906 15.652344 C 7.210938 14.921875 8.628906 15.125 9.101562 14.554688 C 8.351562 14.789062 7.625 14.296875 6.625 14.589844 C 7.0625 13.921875 8.433594 14.34375 8.988281 13.855469 C 8.214844 13.96875 7.574219 13.367188 6.539062 13.5 C 7.078125 12.910156 8.363281 13.539062 8.988281 13.144531 C 8.207031 13.132812 7.667969 12.441406 6.625 12.410156 C 7.25 11.914062 8.421875 12.734375 9.101562 12.441406 C 8.328125 12.308594 7.90625 11.539062 6.878906 11.347656 C 7.574219 10.953125 8.605469 11.949219 9.320312 11.769531 C 8.578125 11.515625 8.28125 10.691406 7.296875 10.339844 C 8.046875 10.058594 8.90625 11.203125 9.644531 11.136719 C 8.949219 10.769531 8.785156 9.90625 7.867188 9.40625 C 8.652344 9.246094 9.320312 10.511719 10.058594 10.5625 C 9.433594 10.09375 9.402344 9.214844 8.578125 8.578125 C 9.375 8.542969 9.839844 9.898438 10.5625 10.058594 C 10.015625 9.5 10.125 8.625 9.40625 7.867188 C 10.203125 7.957031 10.449219 9.367188 11.136719 9.644531 C 10.683594 9.003906 10.929688 8.160156 10.339844 7.296875 C 11.109375 7.507812 11.132812 8.941406 11.769531 9.320312 C 11.421875 8.617188 11.796875 7.824219 11.347656 6.878906 C 12.078125 7.210938 11.875 8.628906 12.445312 9.101562 C 12.210938 8.351562 12.707031 7.625 12.410156 6.625 C 13.078125 7.0625 12.65625 8.433594 13.144531 8.988281 C 13.03125 8.214844 13.632812 7.574219 13.5 6.539062 C 14.089844 7.078125 13.460938 8.363281 13.855469 8.988281 Z M 13.855469 8.988281 "/>
<path fill-rule="nonzero" fill="rgb(90.979004%, 6.666565%, 17.64679%)" fill-opacity="1" d="M 13.5 17.179688 C 15.53125 17.179688 17.179688 15.53125 17.179688 13.5 C 17.179688 11.46875 15.535156 9.820312 13.5 9.820312 C 11.46875 9.820312 9.820312 11.46875 9.820312 13.5 C 9.820312 15.53125 11.46875 17.179688 13.5 17.179688 Z M 13.5 17.179688 "/>
<path fill-rule="nonzero" fill="rgb(100%, 79.998779%, 30.195618%)" fill-opacity="1" d="M 13.5 10.089844 C 14.4375 10.089844 15.28125 10.492188 15.871094 11.132812 C 14.949219 11.226562 14.167969 11.445312 13.5 11.773438 C 12.832031 11.445312 12.050781 11.226562 11.128906 11.132812 C 11.71875 10.492188 12.5625 10.089844 13.5 10.089844 Z M 13.257812 11.90625 C 13.183594 11.945312 13.113281 11.988281 13.039062 12.03125 C 12.441406 11.714844 11.726562 11.511719 10.875 11.449219 C 10.914062 11.394531 10.953125 11.339844 10.996094 11.289062 C 11.882812 11.367188 12.628906 11.578125 13.257812 11.90625 Z M 13.746094 11.90625 C 13.820312 11.945312 13.890625 11.988281 13.960938 12.03125 C 14.558594 11.714844 15.273438 11.511719 16.125 11.449219 C 16.089844 11.394531 16.046875 11.339844 16.003906 11.289062 C 15.121094 11.367188 14.375 11.578125 13.746094 11.90625 Z M 10.769531 11.617188 C 10.734375 11.671875 10.703125 11.726562 10.671875 11.785156 C 11.464844 11.800781 12.128906 11.984375 12.671875 12.285156 C 12.730469 12.242188 12.789062 12.203125 12.847656 12.160156 C 12.277344 11.851562 11.589844 11.65625 10.769531 11.617188 Z M 10.671875 14.808594 C 10.394531 14.335938 10.292969 13.882812 10.292969 13.296875 C 10.292969 12.816406 10.394531 12.363281 10.582031 11.957031 C 11.351562 11.953125 11.992188 12.117188 12.515625 12.410156 C 11.738281 13.042969 11.109375 13.789062 10.671875 14.808594 Z M 12.191406 16.226562 C 12.046875 16.167969 11.890625 16.011719 11.757812 15.9375 C 11.835938 14.730469 12.398438 13.742188 13.183594 12.90625 C 13.242188 12.964844 13.300781 13.019531 13.351562 13.082031 C 12.621094 13.9375 12.152344 15.042969 12.191406 16.226562 Z M 16.234375 11.617188 C 16.269531 11.671875 16.300781 11.726562 16.332031 11.785156 C 15.539062 11.800781 14.875 11.984375 14.328125 12.285156 C 14.273438 12.242188 14.214844 12.203125 14.152344 12.160156 C 14.726562 11.851562 15.414062 11.65625 16.234375 11.617188 Z M 16.234375 11.617188 "/>
<path fill-rule="nonzero" fill="rgb(100%, 79.998779%, 30.195618%)" fill-opacity="1" d="M 16.332031 14.808594 C 16.605469 14.335938 16.710938 13.882812 16.710938 13.296875 C 16.710938 12.816406 16.605469 12.363281 16.417969 11.957031 C 15.652344 11.953125 15.007812 12.117188 14.484375 12.410156 C 15.261719 13.042969 15.890625 13.789062 16.332031 14.808594 Z M 13.5 13.355469 C 14.074219 14.28125 14.1875 15.292969 14.15625 16.4375 C 13.90625 16.5 13.769531 16.503906 13.5 16.503906 C 13.230469 16.503906 13.097656 16.5 12.847656 16.4375 C 12.816406 15.351562 12.925781 14.316406 13.5 13.355469 Z M 14.804688 16.226562 C 14.949219 16.167969 15.109375 16.058594 15.242188 15.984375 C 15.167969 14.78125 14.601562 13.742188 13.816406 12.90625 C 13.757812 12.964844 13.703125 13.023438 13.648438 13.082031 C 14.378906 13.9375 14.84375 15.042969 14.804688 16.226562 Z M 12.992188 12.734375 C 12.925781 12.679688 12.847656 12.621094 12.773438 12.570312 C 11.960938 13.289062 11.355469 14.128906 11.015625 15.265625 C 11.140625 15.410156 11.140625 15.515625 11.289062 15.632812 C 11.496094 14.4375 12.179688 13.523438 12.992188 12.734375 Z M 14.007812 12.734375 C 14.078125 12.679688 14.15625 12.621094 14.230469 12.570312 C 15.042969 13.289062 15.644531 14.144531 15.984375 15.28125 C 15.859375 15.425781 15.839844 15.515625 15.691406 15.632812 C 15.480469 14.4375 14.824219 13.523438 14.007812 12.734375 Z M 13.5 12.039062 C 13.542969 12.066406 13.679688 12.152344 13.714844 12.175781 C 13.660156 12.207031 13.535156 12.292969 13.5 12.316406 C 13.46875 12.292969 13.339844 12.207031 13.285156 12.175781 C 13.320312 12.152344 13.460938 12.0625 13.5 12.039062 Z M 13.09375 12.308594 C 13.039062 12.347656 12.957031 12.414062 12.925781 12.441406 C 13.003906 12.492188 13.109375 12.570312 13.144531 12.597656 C 13.183594 12.5625 13.265625 12.492188 13.3125 12.457031 C 13.257812 12.417969 13.136719 12.332031 13.09375 12.308594 Z M 13.90625 12.308594 C 13.960938 12.347656 14.042969 12.414062 14.074219 12.441406 C 13.996094 12.492188 13.890625 12.570312 13.859375 12.597656 C 13.816406 12.5625 13.734375 12.492188 13.691406 12.457031 C 13.746094 12.417969 13.863281 12.332031 13.90625 12.308594 Z M 13.5 12.609375 C 13.535156 12.636719 13.640625 12.730469 13.667969 12.757812 C 13.617188 12.800781 13.542969 12.875 13.5 12.917969 C 13.460938 12.875 13.382812 12.800781 13.335938 12.757812 C 13.359375 12.730469 13.464844 12.636719 13.5 12.609375 Z M 13.5 12.609375 "/>
</svg>
